<svg xmlns="http://www.w3.org/2000/svg" version="1.1" xmlns:xlink="http://www.w3.org/1999/xlink" width="512" height="512" x="0" y="0" viewBox="0 0 74 74" style="enable-background:new 0 0 512 512" xml:space="preserve" class=""><g><path d="M37 72a35 35 0 1 1 35-35 35.04 35.04 0 0 1-35 35zm0-68a33 33 0 1 0 33 33A33.037 33.037 0 0 0 37 4z" fill="#b2ccd6" opacity="1" data-original="#000000" class=""/><path d="m37.76 54.63-.775-1.844a66.044 66.044 0 0 0 14.164-8.156c12-9.06 16.973-19.252 17.021-19.354l1.8.863c-.208.434-5.232 10.737-17.621 20.087A68.067 68.067 0 0 1 37.76 54.63z" fill="#b2ccd6" opacity="1" data-original="#000000" class=""/><path d="m52.744 45.522-1.99-.2C53.732 16.126 42.6 4.384 42.486 4.269l1.43-1.4c.484.498 11.9 12.531 8.828 42.653z" fill="#b2ccd6" opacity="1" data-original="#000000" class=""/><path d="M51.278 28.84c-19.738-15.922-39.3-13.529-39.494-13.5l-.264-1.982c.833-.109 20.613-2.527 41.014 13.929z" fill="#b2ccd6" opacity="1" data-original="#000000" class=""/><path d="m6.283 49.64-1.924-.546c.218-.769 5.641-18.955 32.228-31.017l.826 1.821C11.725 31.551 6.334 49.46 6.283 49.64zM62.889 60.032a79.412 79.412 0 0 1-25.882-5.393 65.337 65.337 0 0 1-15.1-8.256l1.193-1.606a63.363 63.363 0 0 0 14.64 8 77.323 77.323 0 0 0 25.152 5.254z" fill="#b2ccd6" opacity="1" data-original="#000000" class=""/><path d="M29.377 70.833c-.1-.174-10.169-17.687-8.531-42.853l2 .13C21.243 52.671 31 69.654 31.1 69.822z" fill="#b2ccd6" opacity="1" data-original="#000000" class=""/></g></svg>