<svg xmlns="http://www.w3.org/2000/svg" version="1.1" xmlns:xlink="http://www.w3.org/1999/xlink" width="512" height="512" x="0" y="0" viewBox="0 0 480 480" style="enable-background:new 0 0 512 512" xml:space="preserve" class=""><g><path d="M400 152.207H264V72c13.773-10.332 19.39-28.316 13.95-44.648C272.503 11.016 257.218 0 240 0s-32.504 11.016-37.95 27.352C196.61 43.684 202.228 61.668 216 72v80.207H80c-44.164.05-79.953 35.84-80 80v160c.047 44.164 35.836 79.953 80 80h320c44.164-.047 79.953-35.836 80-80v-160c-.047-44.16-35.836-79.95-80-80zm-160-136c13.254 0 24 10.746 24 24s-10.746 24-24 24-24-10.746-24-24 10.746-24 24-24zm8 63.2v72.8h-16v-72.8a39.98 39.98 0 0 0 16 0zm216 312.8c-.04 35.332-28.672 63.961-64 64H80c-35.328-.039-63.96-28.668-64-64v-160c.04-35.328 28.672-63.96 64-64h320c35.328.04 63.96 28.672 64 64zm0 0" fill="oklch(86.1335% 0.141656 139.549991 /1)" opacity="1" data-original="#000000" class=""/><path d="M328 216.207H152a8 8 0 0 0-8 8v208a8 8 0 0 0 8 8h176a8 8 0 0 0 8-8v-208a8 8 0 0 0-8-8zm-8 208H160v-192h160zM80 224.207c-26.508 0-48 21.492-48 48 0 26.512 21.492 48 48 48s48-21.488 48-48c-.027-26.496-21.5-47.973-48-48zm0 80c-17.672 0-32-14.324-32-32 0-17.672 14.328-32 32-32s32 14.328 32 32c0 17.676-14.328 32-32 32zM400 224.207c-26.508 0-48 21.492-48 48 0 26.512 21.492 48 48 48s48-21.488 48-48c-.027-26.496-21.5-47.973-48-48zm0 80c-17.672 0-32-14.324-32-32 0-17.672 14.328-32 32-32s32 14.328 32 32c0 17.676-14.328 32-32 32zm0 0" fill="oklch(86.1335% 0.141656 139.549991 /1)" opacity="1" data-original="#000000" class=""/><path d="M77.656 258.55a8 8 0 0 0-11.312 11.313l16 16a8 8 0 0 0 11.312-11.312zM402.344 258.55l-16 16a8.002 8.002 0 0 0 3.531 13.497 8.001 8.001 0 0 0 7.781-2.184l16-16a8 8 0 0 0-11.312-11.312zM120 336.207H40a8 8 0 0 0-8 8v32a8 8 0 0 0 8 8h80a8 8 0 0 0 8-8v-32a8 8 0 0 0-8-8zm-8 32H48v-16h64zM440 336.207h-80a8 8 0 0 0-8 8v32a8 8 0 0 0 8 8h80a8 8 0 0 0 8-8v-32a8 8 0 0 0-8-8zm-8 32h-64v-16h64zM152 200.207h24a8 8 0 0 0 0-16h-24a8 8 0 0 0 0 16zM328 184.207H208a8 8 0 0 0 0 16h120a8 8 0 0 0 0-16zM232 408.207h16v-72h56v-16h-56v-72h-16v72h-56v16h56zM176 248.207h32v16h-32zM176 280.207h16v16h-16zM272 392.207h32v16h-32zm0 0" fill="oklch(86.1335% 0.141656 139.549991 /1)" opacity="1" data-original="#000000" class=""/></g></svg>