<svg xmlns="http://www.w3.org/2000/svg" version="1.1" xmlns:xlink="http://www.w3.org/1999/xlink" width="512" height="512" x="0" y="0" viewBox="0 0 96 96" style="enable-background:new 0 0 512 512" xml:space="preserve" class=""><g><path d="M49.5 41a1.5 1.5 0 0 1-3 0 1.5 1.5 0 0 1 3 0Z" fill="oklch(86.1335% 0.141656 139.549991 /1)" opacity="1" data-original="#000000" class=""/><path d="m91.68 58.352-2.64-1.44a1 1 0 0 0-1.32.336l-7.48 11.604L61.528 60.3l.963-25.039 17.239-7.886a.998.998 0 0 0 .176.665l7.76 10.91a1 1 0 0 0 1.348.266l2.54-1.601a1 1 0 0 0 .348-1.318l-7.11-13.26a.978.978 0 0 0-.285-.318 2.89 2.89 0 0 0-.998-1.353c.017-.5.331-1.509-.033-1.937l-7.76-10.91a1.003 1.003 0 0 0-1.35-.264l-2.54 1.61a1 1 0 0 0-.346 1.317l5.967 11.138-14.866 4.101a7.003 7.003 0 0 0-6.509-5.406c-.202-.037-.854-.005-1.071-.015v-1a3.003 3.003 0 0 0-3-3h-8a3.003 3.003 0 0 0-3 3v1c-.221.01-.866-.022-1.071.015a7.003 7.003 0 0 0-6.509 5.407l-14.203-3.916 5.282-11.55a1 1 0 0 0-.446-1.303l-2.66-1.39a1 1 0 0 0-1.313.36l-7.93 12.77a.976.976 0 0 0-.133.417 2.98 2.98 0 0 0-.363.533 2.967 2.967 0 0 0-.308 1.01c-.443.234-1.466.46-1.655.99l-5.57 12.181a1 1 0 0 0 .447 1.303l2.66 1.39a1.001 1.001 0 0 0 1.312-.36l7.255-11.692L33.51 35.26l.962 25.039-18.201 8.325a.999.999 0 0 0-.176-.665l-7.76-10.91a1 1 0 0 0-1.348-.266l-2.54 1.601a1 1 0 0 0-.348 1.318l7.11 13.26a.983.983 0 0 0 .285.32 2.809 2.809 0 0 0 1 1.338c-.017.503-.334 1.52.031 1.95l7.76 10.91a1.001 1.001 0 0 0 .816.42c.378.113 2.557-1.5 3.075-1.766a1 1 0 0 0 .346-1.317L18.554 73.68l16.325-4.507A6.99 6.99 0 0 0 42.03 75H53.97a6.99 6.99 0 0 0 7.152-5.827l15.606 4.307-5.449 11.388a1 1 0 0 0 .422 1.309l2.63 1.44a1 1 0 0 0 1.32-.335l8.15-12.64a.978.978 0 0 0 .141-.43 2.72 2.72 0 0 0 .705-1.51c.444-.224 1.48-.434 1.675-.96l5.78-12.08a1 1 0 0 0-.422-1.31Zm-9.113 14.39a1 1 0 0 1-1.755-.96 1 1 0 0 1 1.755.96Zm-3.347-2.158a2.648 2.648 0 0 0-.487 1.237l-.202.083-17.267-4.766.18-4.678Zm2.468-47.845a.998.998 0 1 1-.218 1.975.998.998 0 0 1 .218-1.975Zm8.01 13.682-.95.599-6.99-9.826.055-.463a2.914 2.914 0 0 0 2.134-1.037ZM74.635 10.452l6.987 9.823-.056.48a2.883 2.883 0 0 0-2.136 1.032l-5.75-10.73Zm3.944 13.98a.982.982 0 0 0 .293.327 2.45 2.45 0 0 0 .337.655l-16.633 7.609.176-4.575 15.663-4.321ZM54.883 23l-.481 4.331A2.998 2.998 0 0 1 51.42 30h-6.84a2.998 2.998 0 0 1-2.982-2.669L41.118 23ZM43 20a1 1 0 0 1 1-1h8a1 1 0 0 1 1 1v1H43Zm-3.88 3.134.49 4.418A4.994 4.994 0 0 0 44.58 32h6.84a4.994 4.994 0 0 0 4.97-4.448l.49-4.418a5.005 5.005 0 0 1 3.881 5.058l-.328 8.523a17.572 17.572 0 0 0-6.683 13.272L53.03 73H42.97l-.72-23.013a17.573 17.573 0 0 0-6.683-13.272l-.328-8.523a5.005 5.005 0 0 1 3.881-5.058Zm-25.695.14a1 1 0 0 1 1.771.93 1 1 0 0 1-1.771-.93Zm7.865-12.807.996.52-5.015 10.965-.436.187a2.88 2.88 0 0 0-1.966-1.332ZM7.33 37.014l-.996-.52 5.014-10.966.441-.189a2.886 2.886 0 0 0 1.958 1.333Zm9.437-11.603a2.473 2.473 0 0 0 .51-1.286l.114-.049 15.857 4.372.176 4.576Zm-3.302 47.385a1 1 0 0 1 1.69-1.07 1 1 0 0 1-1.69 1.07ZM6.302 59.579l.95-.599 6.99 9.826-.055.47a2.889 2.889 0 0 0-2.134 1.03Zm15.063 25.969-6.987-9.823.055-.472a2.912 2.912 0 0 0 2.137-1.04l5.75 10.73Zm-3.944-13.98a.98.98 0 0 0-.292-.323 2.449 2.449 0 0 0-.338-.658l17.765-8.125.18 4.676-17.15 4.735Zm19.356-3.375-1.104-28.71a15.574 15.574 0 0 1 4.578 10.567l.715 22.872a4.973 4.973 0 0 1-4.189-4.73Zm18.257 4.729.715-22.872a15.575 15.575 0 0 1 4.578-10.567l-1.105 28.71a4.972 4.972 0 0 1-4.188 4.728Zm19.44 12.494-.983-.538 5.205-10.88.218-.09.015-.006.21-.086a2.9 2.9 0 0 0 1.932 1.369ZM84.685 70.53l-.444.18a2.888 2.888 0 0 0-1.935-1.37l6.591-10.226.992.541Z" fill="oklch(86.1335% 0.141656 139.549991 /1)" opacity="1" data-original="#000000" class=""/></g></svg>