<svg xmlns="http://www.w3.org/2000/svg" version="1.1" xmlns:xlink="http://www.w3.org/1999/xlink" width="512" height="512" x="0" y="0" viewBox="0 0 512 512" style="enable-background:new 0 0 512 512" xml:space="preserve" class=""><g><path d="M157.3 251.89v.01c15.52 20.83 40.32 34.36 68.24 34.36H336.6c60.17 0 109.12 48.95 109.12 109.12S396.77 504.5 336.6 504.5H185.39c-8.25 0-14.95-6.7-14.95-14.95s6.7-14.94 14.95-14.94H336.6c8.46 0 16.61-1.33 24.26-3.81" style="stroke-width:15;stroke-linecap:round;stroke-linejoin:round;stroke-miterlimit:10;" fill="none" stroke="#b2ccd6" stroke-width="15" stroke-linecap="round" stroke-linejoin="round" stroke-miterlimit="10" data-original="#000000" class="" opacity="1"/><path d="M173.87 303.86c15.54 7.86 33.1 12.29 51.67 12.29H336.6c43.69 0 79.23 35.54 79.23 79.23 0 22.72-9.61 43.23-24.98 57.69M141.281 212.422v-.01a83.932 83.932 0 0 1-.737-11.139c0-46.868 38.13-84.998 84.998-84.998h13.202v12.913c0 7.492 8.12 12.175 14.606 8.429l48.233-27.848c6.486-3.756 6.486-13.122-.01-16.868L253.35 65.053c-6.486-3.746-14.606.937-14.606 8.439v12.893h-13.202c-63.347 0-114.888 51.541-114.888 114.888 0 1.116.02 2.242.05 3.348" style="stroke-width:15;stroke-linecap:round;stroke-linejoin:round;stroke-miterlimit:10;" fill="none" stroke="#b2ccd6" stroke-width="15" stroke-linecap="round" stroke-linejoin="round" stroke-miterlimit="10" data-original="#000000" class="" opacity="1"/><path d="M119.552 203.307h0a30.47 30.47 0 0 0-29.031 21.217L34.879 399.106h169.347l-55.643-174.581a30.47 30.47 0 0 0-29.031-21.218z" style="stroke-width:15;stroke-linecap:round;stroke-linejoin:round;stroke-miterlimit:10;" fill="none" stroke="#b2ccd6" stroke-width="15" stroke-linecap="round" stroke-linejoin="round" stroke-miterlimit="10" data-original="#000000" class="" opacity="1"/><path d="M208.753 442.991H30.352c-12.119 0-21.943-9.824-21.943-21.943v0c0-12.119 9.824-21.943 21.943-21.943h178.401c12.119 0 21.943 9.824 21.943 21.943v0c-.001 12.119-9.825 21.943-21.943 21.943zM75.15 340.03H53.71M185.39 340.03h-75.24M162.259 267.447H76.842M452.17 125.02l24.95 78.28H307.77l55.65-174.58c4.02-12.64 15.76-21.22 29.03-21.22 13.26 0 25 8.58 29.03 21.22l20.09 63.03M481.648 247.189H303.247c-12.119 0-21.943-9.824-21.943-21.943v0c0-12.119 9.824-21.943 21.943-21.943h178.401c12.119 0 21.943 9.824 21.943 21.943v0c0 12.118-9.824 21.943-21.943 21.943zM458.289 144.228H326.603M435.154 71.644h-85.416" style="stroke-width:15;stroke-linecap:round;stroke-linejoin:round;stroke-miterlimit:10;" fill="none" stroke="#b2ccd6" stroke-width="15" stroke-linecap="round" stroke-linejoin="round" stroke-miterlimit="10" data-original="#000000" class="" opacity="1"/></g></svg>