<svg xmlns="http://www.w3.org/2000/svg" version="1.1" xmlns:xlink="http://www.w3.org/1999/xlink" width="512" height="512" x="0" y="0" viewBox="0 0 534.331 534.331" style="enable-background:new 0 0 512 512" xml:space="preserve" class=""><g><path d="M379.238 494.586 268.572 252.855 169.81 494.586z" fill="#b2ccd6" opacity="1" data-original="#000000" class=""/><circle cx="268.275" cy="206.114" r="33.861" fill="#b2ccd6" opacity="1" data-original="#000000" class=""/><path d="M206.521 138.153c-3.882-3.596-9.917-3.385-13.512.517-.574.621-56.849 62.979-.641 138.293 1.875 2.524 4.753 3.844 7.669 3.844a9.507 9.507 0 0 0 5.708-1.894c4.227-3.165 5.106-9.151 1.941-13.378-46.512-62.328-2.543-111.785-.622-113.889 3.568-3.892 3.329-9.917-.543-13.493zM140.482 89.174a9.542 9.542 0 0 0-13.493.526c-1.004 1.09-24.834 27.157-36.892 69.366-11.15 39.024-13.914 99.66 36.251 166.866 1.874 2.525 4.752 3.845 7.669 3.845a9.512 9.512 0 0 0 5.709-1.894c4.227-3.165 5.106-9.151 1.941-13.378-86.521-115.946-4.179-207.956-.631-211.819 3.567-3.901 3.318-9.936-.554-13.512z" fill="#b2ccd6" opacity="1" data-original="#000000" class=""/><path d="M67.596 376.662a9.51 9.51 0 0 0 5.709-1.894c4.227-3.165 5.106-9.151 1.941-13.378-124.829-167.277-5.766-300.024-.631-305.589a9.566 9.566 0 0 0-.545-13.512c-3.892-3.576-9.907-3.356-13.502.526-1.367 1.472-135.166 149.749-.641 330.011a9.557 9.557 0 0 0 7.669 3.836zM328.595 278.904a9.512 9.512 0 0 0 5.709 1.894 9.54 9.54 0 0 0 7.669-3.844c56.199-75.315-.066-137.663-.641-138.293-3.586-3.863-9.63-4.122-13.512-.517-3.873 3.586-4.112 9.639-.526 13.512 1.913 2.056 46.149 51.149-.641 113.861-3.164 4.235-2.284 10.222 1.942 13.387zM407.352 89.69c-3.596-3.882-9.648-4.112-13.512-.516-3.873 3.586-4.112 9.639-.526 13.512.87.947 86.158 95.481-.641 211.8-3.165 4.228-2.285 10.213 1.941 13.378a9.512 9.512 0 0 0 5.709 1.894 9.54 9.54 0 0 0 7.669-3.844c96.228-128.913.345-235.152-.64-236.224zM460.261 42.28c-3.873 3.586-4.111 9.629-.545 13.512 5.135 5.565 124.197 138.312-.631 305.589-3.166 4.228-2.286 10.213 1.94 13.378a9.514 9.514 0 0 0 5.709 1.894 9.54 9.54 0 0 0 7.669-3.844c134.525-180.263.728-328.53-.641-330.012-3.585-3.855-9.618-4.094-13.501-.517z" fill="#b2ccd6" opacity="1" data-original="#000000" class=""/></g></svg>